HIERARCHY
ROOT Hips
{
  OFFSET -125.086 92.215 135.881
  CHANNELS 6 Xposition Yposition Zposition Zrotation Xrotation Yrotation
  JOINT LeftUpLeg
  {
    OFFSET 8.64259 1.95398 -2.38835
    CHANNELS 3 Zrotation Xrotation Yrotation
    JOINT LeftLeg
    {
      OFFSET 43.7702 0 0
      CHANNELS 3 Zrotation Xrotation Yrotation
      JOINT LeftFoot
      {
        OFFSET 40.6238 0 0
        CHANNELS 3 Zrotation Xrotation Yrotation
        JOINT LeftToeBase
        {
          OFFSET 12.7242 0 0
          CHANNELS 3 Zrotation Xrotation Yrotation
          End Site
          {
            OFFSET 0 0 0
          }
        }
      }
    }
  }
  JOINT RightUpLeg
  {
    OFFSET -8.2249 1.95398 -2.59336
    CHANNELS 3 Zrotation Xrotation Yrotation
    JOINT RightLeg
    {
      OFFSET 43.5653 0 0
      CHANNELS 3 Zrotation Xrotation Yrotation
      JOINT RightFoot
      {
        OFFSET 40.6238 0 0
        CHANNELS 3 Zrotation Xrotation Yrotation
        JOINT RightToeBase
        {
          OFFSET 12.7242 0 0
          CHANNELS 3 Zrotation Xrotation Yrotation
          End Site
          {
            OFFSET 0 0 0
          }
        }
      }
    }
  }
  JOINT Spine
  {
    OFFSET 0.165834 0.87714 6.61349
    CHANNELS 3 Zrotation Xrotation Yrotation
    JOINT Spine1
    {
      OFFSET 7.38963 1.71661e-005 0
      CHANNELS 3 Zrotation Xrotation Yrotation
      JOINT Spine2
      {
        OFFSET 11.9445 1.14441e-005 0
        CHANNELS 3 Zrotation Xrotation Yrotation
        JOINT Spine3
        {
          OFFSET 14.7254 4.19617e-005 0
          CHANNELS 3 Zrotation Xrotation Yrotation
          JOINT Spine4
          {
            OFFSET 10.9679 0 0
            CHANNELS 3 Zrotation Xrotation Yrotation
            JOINT RightShoulder
            {
              OFFSET 2.46616 -1.6653 3.69651
              CHANNELS 3 Zrotation Xrotation Yrotation
              JOINT RightArm
              {
                OFFSET 13.0012 0 0
                CHANNELS 3 Zrotation Xrotation Yrotation
                JOINT RightForeArm
                {
                  OFFSET 28.7848 1.52588e-005 0
                  CHANNELS 3 Zrotation Xrotation Yrotation
                  JOINT RightHand
                  {
                    OFFSET 26.5688 1.52588e-005 0
                    CHANNELS 3 Zrotation Xrotation Yrotation
                    End Site
                    {
                      OFFSET 0 0 0
                    }
                  }
                }
              }
            }
            JOINT LeftShoulder
            {
              OFFSET 2.38034 -1.29275 -3.7523
              CHANNELS 3 Zrotation Xrotation Yrotation
              JOINT LeftArm
              {
                OFFSET 16.3182 6.10352e-005 0
                CHANNELS 3 Zrotation Xrotation Yrotation
                JOINT LeftForeArm
                {
                  OFFSET 27.0901 0 0
                  CHANNELS 3 Zrotation Xrotation Yrotation
                  JOINT LeftHand
                  {
                    OFFSET 24.5451 1.52588e-005 0
                    CHANNELS 3 Zrotation Xrotation Yrotation
                    End Site
                    {
                      OFFSET 0 0 0
                    }
                  }
                }
              }
            }
            JOINT Neck
            {
              OFFSET 5.0226 -0.0266342 0
              CHANNELS 3 Zrotation Xrotation Yrotation
              JOINT Head
              {
                OFFSET 6.69363 2.86102e-005 0
                CHANNELS 3 Zrotation Xrotation Yrotation
                End Site
                {
                  OFFSET 0 0 0
                }
              }
            }
          }
        }
      }
    }
  }
}
MOTION
Frames:	11
Frame Time:	0.0416667
-305.831 84.8368 290.644 106.358 41.1073 90.9447 -175.122 15.8496 97.5846 86.083 -44.9789 165.697 -59.9427 38.3658 -99.3655 -160.593 -27.8025 4.2659 122.195 -31.4339 56.3308 -2.08358 3.74736 28.3406 66.275 2.11436 -74.0261 57.6594 -55.7961 -128.579 0.116123 4.09381 -92.8235 18.6228 -1.26151 -5.49145 6.9411 -1.50164 -5.43089 -15.501 0.444381 -5.61656 4.51162 0.444375 -5.61656 117.015 -10.8841 -39.7178 86.9076 -14.6129 -26.1763 177.568 17.6601 -165.572 8.1216 -5.44514 -68.6099 -52.615 -34.0738 142.135 -57.3425 46.6308 86.5656 -18.39 -4.77026 -148.772 35.5477 -6.69056 -23.4267 -93.4276 -37.218 4.06124 45.4821 -34.0426 1.79237 
-306.096 84.9052 290.939 106.065 41.1837 90.9286 -175.11 15.7684 97.229 86.0002 -44.6585 165.826 -62.2038 38.251 -97.8287 -160.597 -22.0625 5.46738 122.495 -31.447 55.9014 0.215217 -0.500512 29.6007 66.1448 4.46953 -77.178 56.933 -56.077 -130.084 0.126367 4.08121 -92.7937 18.6497 -1.22655 -5.43783 6.96824 -1.46431 -5.37886 -15.4757 0.461715 -5.55495 4.53693 0.46173 -5.55495 117.152 -11.1005 -39.554 86.8267 -14.818 -26.4582 178.375 14.3451 -166.575 8.52997 -5.58463 -67.5751 -52.979 -33.5951 141.798 -58.2437 47.077 87.1135 -18.4716 -5.00463 -149.318 36.168 -6.67074 -23.0471 -93.1582 -36.953 3.9455 45.2819 -33.7773 2.06491 
-306.88 85.0263 291.801 105.21 41.4012 90.8869 -175.065 15.5893 96.1701 84.1559 -47.7195 165.138 -66.3537 35.7764 -97.7551 -161.775 -4.86682 8.90527 123.329 -31.4679 55.15 9.37595 -14.4703 33.679 66.1874 11.875 -87.3818 56.4399 -58.2349 -132.358 0.155724 4.04454 -92.7074 18.728 -1.12515 -5.28251 7.04708 -1.35625 -5.2281 -15.4021 0.512015 -5.37642 4.61053 0.51201 -5.37642 117.549 -11.7208 -39.0859 86.5887 -15.4041 -27.2756 -179.932 4.96214 -169.169 9.3955 -5.7486 -64.4934 -53.9977 -32.2292 140.843 -60.7784 48.3394 88.6623 -18.7371 -5.66597 -150.882 37.9243 -6.57834 -21.9337 -92.3683 -36.1651 3.60967 44.656 -32.9806 2.86986 
-308.162 85.0712 293.189 103.827 41.7351 90.8346 -174.943 15.3931 94.3955 72.8354 -64.1965 157.001 -68.055 27.4719 -110.275 -167.27 19.8133 15.1761 124.739 -31.1041 54.9109 29.6577 -35.1352 44.8071 67.8651 24.7555 -108.43 54.4181 -59.3394 -136.552 0.202637 3.9852 -92.5693 18.8543 -0.96303 -5.03422 7.17415 -1.1834 -4.98714 -15.2831 0.592377 -5.09101 4.72952 0.59238 -5.09101 118.18 -12.6945 -38.3554 86.2005 -16.3187 -28.5882 -178.812 -8.48153 -172.828 9.84191 -5.44716 -59.7668 -55.5201 -30.1127 139.385 -64.5321 50.2853 90.9583 -19.2598 -6.64817 -153.32 40.5996 -6.31835 -20.1071 -91.0733 -34.8396 3.07023 43.4978 -31.6133 4.21913 
-309.899 84.9812 295.057 101.943 42.1522 90.7946 -174.673 15.208 91.8842 86.926 -24.9985 169.393 -105.187 23.5057 -56.9662 179.757 38.8909 25.5885 126.804 -29.6846 54.941 58.3464 -47.7304 65.5632 75.9045 46.614 -131.589 43.6858 -42.9502 -152.078 0.265412 3.90435 -92.3846 19.0256 -0.745933 -4.70287 7.34653 -0.951968 -4.66562 -15.121 0.700303 -4.70987 4.8916 0.700289 -4.70987 119.019 -13.9662 -37.4096 85.6696 -17.5034 -30.3608 -179.456 -22.5192 -177.617 9.31466 -4.61217 -54.5517 -57.3677 -27.4174 137.561 -68.8166 52.822 93.5212 -20.1688 -7.76867 -156.444 43.911 -5.75268 -17.571 -89.2665 -32.9312 2.33581 41.6063 -29.5952 6.19713 
-312.101 84.5364 297.357 99.5892 42.6138 90.7968 -174.177 15.2119 88.6164 -94.7568 15.3273 9.71731 -52.8366 -11.511 138.888 164.494 42.6477 34.3177 129.133 -27.3323 55.5636 93.1383 -50.8133 92.5152 165.626 76.1176 141.731 41.7184 -5.88273 -172.706 0.34251 3.8029 -92.1595 19.2391 -0.47964 -4.30026 7.5612 -0.668262 -4.27506 -14.9181 0.833711 -4.24595 5.09454 0.833711 -4.24594 120.041 -15.4805 -36.2961 85.0035 -18.8991 -32.5629 179.701 -34.2757 179.813 8.19541 -3.66731 -49.9201 -59.3639 -24.3377 135.507 -72.6416 55.9591 95.5708 -21.6281 -8.77756 -160.008 47.5253 -4.73252 -14.3303 -86.9222 -30.4243 1.38599 38.7646 -26.8623 9.05121 
-314.589 84.4963 299.884 96.8004 43.0756 90.8781 -173.685 14.8571 84.9187 98.4905 56.7772 163.211 -64.1765 -12.9512 41.529 155.265 35.0289 33.7364 130.809 -25.7568 54.805 100.173 -46.7504 97.5379 135.738 44.0916 155.317 43.5467 -54.0571 -153.206 0.432552 3.68207 -91.9016 19.4912 -0.170814 -3.84101 7.81461 -0.339564 -3.8298 -14.6771 0.990657 -3.71517 5.33558 0.990629 -3.71516 121.217 -17.1832 -35.0624 84.2133 -20.4485 -35.1644 -179.544 -43.2536 180 7.13587 -2.94046 -46.2257 -61.3556 -21.0747 133.352 -74.6368 59.7874 95.8963 -23.8019 -9.40877 -163.677 51.0666 -3.1321 -10.4093 -84.4705 -28.8539 -0.391732 38.7235 -23.9287 16.6376 
-317.205 84.8469 302.659 93.6273 43.4897 91.08 -173.721 13.9926 81.565 77.9129 -22.0252 170.458 -137.795 -45.648 -44.3262 149.581 24.3152 28.3438 132.385 -22.8315 51.535 88.4536 -40.6784 89.0947 109.984 37.8379 -179.334 35.6978 12.488 -150.01 0.533304 3.54366 -91.6203 19.7776 0.172293 -3.34288 8.1024 0.0250821 -3.34723 -14.4015 1.1685 -3.13695 5.61116 1.16851 -3.13695 122.517 -19.0223 -33.7552 83.318 -22.0998 -38.1308 -178.754 -50.1378 180 6.43995 -2.48108 -43.3776 -63.2265 -17.8133 131.21 -72.8266 64.2956 92.5794 -26.8029 -9.49343 -167.002 54.1428 -0.894856 -5.8671 -77.7199 -15.4508 2.3048 7.00153 -14.8896 -4.92684 
-320.324 84.225 305.758 90.1366 43.8111 91.4398 -174.066 13.1332 78.1278 74.6872 -19.5686 170.901 -133.262 -64.0876 -34.5504 144.584 15.7679 23.2272 133.058 -19.201 50.281 108.509 -36.4874 101.371 166.693 51.5158 136.876 -7.52962 83.8265 -110.499 0.642647 3.3899 -91.3254 20.0935 0.539861 -2.82474 8.41954 0.415064 -2.84576 -14.0958 1.3636 -2.53224 5.91686 1.3636 -2.53224 123.912 -20.9534 -32.4168 82.3425 -23.8106 -41.4237 -178.062 -55.6013 -180 6.10682 -2.22166 -41.1883 -64.9076 -14.6911 129.172 -64.121 68.9593 82.4527 -30.6166 -9.09976 -169.47 56.407 1.92095 -0.799453 -72.7549 -8.96519 3.32589 -8.84282 -7.95711 -18.1452 
-323.703 83.6067 309.008 86.4085 44.0044 91.9819 -174.881 11.7383 74.7816 72.0936 -19.7414 171.111 -118.718 -73.7148 -17.3853 139.778 10.6103 19.9379 132.328 -15.5752 48.3182 153.389 -16.8778 120.314 174.514 25.2533 150.191 -121.412 48.365 8.99102 0.757925 3.22334 -91.0265 20.433 0.922039 -2.30404 8.76028 0.81977 -2.34236 -13.7653 1.57176 -1.92061 6.24735 1.57176 -1.92062 125.374 -22.94 -31.0792 81.3104 -25.5514 -45.006 -177.586 -60.1313 -179.999 6.04351 -2.09279 -39.5029 -66.3723 -11.7909 127.293 -44.7212 72.114 61.5493 -35.0665 -8.54936 -170.646 57.6062 5.13876 4.67915 -68.476 -5.712 3.62718 -17.4101 -1.95101 -28.5106 
-327.271 83.023 312.325 82.5339 44.046 92.7136 -176.118 10.0799 71.3305 70.5864 -19.5158 171.246 -91.34 -75.1308 9.80853 135.142 8.05156 18.376 129.898 -11.539 46.0289 -68.6506 28.566 79.2857 -23.9635 -49.7654 -76.3392 -115.625 23.4942 12.1155 0.876534 3.04736 -90.732 20.7892 1.30942 -1.79606 9.11756 1.22912 -1.85193 -13.4168 1.78863 -1.31955 6.59579 1.78862 -1.31955 126.881 -24.9514 -29.763 80.2364 -27.312 -48.8489 -177.368 -64.0544 -179.998 6.15475 -2.04342 -38.202 -67.6204 -9.15396 125.608 -18.5026 71.1753 33.5724 -39.8152 -8.30117 -170.299 57.6055 8.49328 10.4472 -64.5561 -3.18334 3.43002 -22.9173 3.69113 -37.1602 
